<svg xmlns="http://www.w3.org/2000/svg" width="1200" height="630" viewBox="0 0 1200 630">
  <defs>
    <linearGradient id="bg" x1="0" y1="0" x2="1" y2="1">
      <stop offset="0" stop-color="#1a2436" />
      <stop offset="1" stop-color="#0f1115" />
    </linearGradient>
    <linearGradient id="acc" x1="0" y1="0" x2="1" y2="0">
      <stop offset="0" stop-color="#4cc2ff" />
      <stop offset="1" stop-color="#7c5cff" />
    </linearGradient>
  </defs>
  <rect width="1200" height="630" fill="url(#bg)" />
  <rect x="80" y="84" width="96" height="96" rx="22" fill="url(#acc)" />
  <g fill="#0f1115">
    <rect x="101" y="122" width="9" height="20" rx="4" />
    <rect x="116" y="108" width="9" height="48" rx="4" />
    <rect x="131" y="116" width="9" height="32" rx="4" />
    <rect x="146" y="126" width="9" height="12" rx="4" />
  </g>
  <text x="80" y="330" font-family="DejaVu Sans, sans-serif" font-size="84" font-weight="700" fill="#e7ecf3">AudioQualityEnhancer</text>
  <text x="80" y="398" font-family="DejaVu Sans, sans-serif" font-size="42" font-weight="700" fill="url(#acc)">YouTube zu Audio – in echter Qualität.</text>
  <text x="80" y="468" font-family="DejaVu Sans, sans-serif" font-size="28" fill="#9aa6b6">Bester Original-Stream · Loudness-Normalisierung · FLAC · Metadaten &amp; Cover</text>
  <g fill="#4cc2ff" opacity="0.85">
    <rect x="80" y="540" width="10" height="30" rx="5" />
    <rect x="100" y="525" width="10" height="60" rx="5" />
    <rect x="120" y="510" width="10" height="90" rx="5" />
    <rect x="140" y="530" width="10" height="50" rx="5" />
    <rect x="160" y="545" width="10" height="20" rx="5" />
    <rect x="180" y="520" width="10" height="70" rx="5" />
    <rect x="200" y="535" width="10" height="40" rx="5" />
  </g>
  <text x="1120" y="575" text-anchor="end" font-family="DejaVu Sans, sans-serif" font-size="28" font-weight="700" fill="#9aa6b6">yttomp3.kentser.com</text>
</svg>
